<?xml version="1.0" standalone="no"?><!DOCTYPE svg PUBLIC "-//W3C//DTD SVG 1.1//EN" "http://www.w3.org/Graphics/SVG/1.1/DTD/svg11.dtd"><svg t="1604652275394" class="icon" viewBox="0 0 1037 1024" version="1.1" xmlns="http://www.w3.org/2000/svg" p-id="24747" xmlns:xlink="http://www.w3.org/1999/xlink" width="202.5390625" height="200"><defs><style type="text/css"></style></defs><path d="M1021.043668 430.390307c0 69.997214-57.141418 126.749776-127.630842 126.749776-70.487378 0-127.630842-56.752562-127.630842-126.749776l0 0 0 0 0 0c0 69.997214-57.143465 126.749776-127.630842 126.749776s-127.630842-56.752562-127.630842-126.749776l0 0 0 0 0 0 0 0c0 69.997214-57.143465 126.749776-127.630842 126.749776-70.486354 0-127.629819-56.752562-127.629819-126.749776l0 0 0 0 0 0 0 0c0 69.997214-57.143465 126.749776-127.631866 126.749776-70.485331 0-127.628796-56.752562-127.628796-126.749776l0 0 0 0 0 0 89.73986-237.651608L931.303808 192.738699 1021.043668 430.390307 1021.043668 430.390307 1021.043668 430.390307zM861.505116 145.199986l-701.967586 0c-26.433022 0-47.861054-21.270443-47.861054-47.529503 0-26.247804 21.429055-47.52848 47.861054-47.52848l701.967586 0c26.431999 0 47.861054 21.280676 47.861054 47.52848C909.367193 123.929544 887.937115 145.199986 861.505116 145.199986zM143.583163 603.905176l0-0.031722c4.587482-0.415462 9.081843-1.098008 13.552667-1.845021 0.973164-0.176009 1.960655-0.25071 2.916423-0.433882 2.069125-0.37453 4.054339-0.955768 6.098905-1.412163 8.66638-1.969864 17.149589-4.403287 25.293059-7.568373l0 0.022513 0 0 0 233.856166L829.597405 826.492694l0-233.856166 0 0 0-0.022513c8.136308 3.1569 16.610306 5.591345 25.26236 7.561209 2.051729 0.456395 4.054339 1.037632 6.130627 1.419326 0.956791 0.183172 1.944282 0.257873 2.90926 0.433882 4.469801 0.74599 8.974395 1.428535 13.560854 1.845021l0 0.031722c5.250584 0.491187 10.56973 0.765433 15.953344 0.765433 10.909467 0 21.547759-1.12359 31.909757-3.009544l0 319.889611c0 26.241664-21.431102 47.53155-47.862078 47.53155L143.583163 969.082226c-26.431999 0-47.861054-21.290909-47.861054-47.53155L95.722108 601.660042c10.360975 1.886977 20.99722 3.009544 31.906687 3.009544C133.014456 604.670609 138.332579 604.396363 143.583163 603.905176z" fill="#99db75" p-id="24748"></path></svg>