<?xml version="1.0" standalone="no"?><!DOCTYPE svg PUBLIC "-//W3C//DTD SVG 1.1//EN" "http://www.w3.org/Graphics/SVG/1.1/DTD/svg11.dtd"><svg t="1604652152169" class="icon" viewBox="0 0 1365 1024" version="1.1" xmlns="http://www.w3.org/2000/svg" p-id="23420" xmlns:xlink="http://www.w3.org/1999/xlink" width="266.6015625" height="200"><defs><style type="text/css"></style></defs><path d="M940.6583330403648 478.6250002929687c33.599999707031245 0 67.1625 0.37500029296875004 100.6500005859375-0.15000029296875 28.349999999999998-0.41249970703125 46.12499999999999-14.325000292968749 45.63749970703125-35.775000000000006-0.71250029296875-27.93750029296875-21.937500000000004-34.61249970703125-43.35000029296875-34.949999707031246a6145.575000292969 6145.575000292969 0 0 0-209.54999970703125 0c-26.962499707031252 0.52499970703125-44.325 17.25000029296875-41.55000029296875 36.824999414062496 3.52500029296875 25.12500029296875 21.0375 34.12500029296875 44.70000029296875 34.0500005859375 34.49999970703125-0.07499970703125 69.00000029296874 0 103.46249970703124 0z m-57.4875 272.99999970703124v0.15000029296875c52.68750029296874 0 105.45000029296874 0.37500029296875004 158.25000058593747-0.11249999999999999 30.300000292968747-0.29999970703125 45.3375-12.6 45.7124994140625-35.212500000000006 0.37500029296875004-22.387500000000003-15.187500000000004-38.43749970703125-43.349999414062495-38.62500029296874a19841.249999707034 19841.249999707034 0 0 0-321.90000029296874 0.3374999999999999c-9.899999999999999 0.07499970703125-23.81249970703125 4.387499999999999-28.725000292968755 11.62500029296875-6.78750029296875 10.0125-13.162500000000001 28.50000029296875-8.3624994140625 36.3749994140625 7.2375002929687495 11.7 24.112500292968747 23.625 37.4625 24.299999999999997 53.51249970703125 2.66249970703125 107.25000029296874 1.125 160.875 1.125z m-0.52499970703125-137.17500029296878c52.80000029296875 0 105.59999970703124 0.29999970703125 158.43750029296876-0.11249999999999999 30.412500292968748-0.22499999999999998 44.84999970703125-11.737500292968749 46.0499994140625-35.02499941406249 1.125-25.350000292968748-12.33749970703125-40.23749970703125-43.61249970703125-40.53750029296875a16177.124999707034 16177.124999707034 0 0 0-319.6125 0.15000029296875c-30.9375 0.29999970703125-44.325 15.59999970703125-43.16249970703125 41.0999994140625 1.0500002929687497 23.47499970703125 14.887500292968749 34.12500029296875 46.1624994140625 34.35000029296875 51.93749970703124 0.29999970703125 103.76250029296874 0.07499970703125 155.73750029296875 0.07499970703125z m-396.74999970703124-239.2499997070312c-0.15000029296875-56.099999707031245-44.13750029296875-99.52499970703126-101.10000058593751-99.7875-57.75000029296874-0.3374999999999999-102.75000029296874 44.17499970703125-102.6374994140625 101.43749970703125a101.25 101.25 0 0 0 102.67499970703125 101.5875c57.22499970703126-0.60000029296875 101.25-45.524999707031256 101.06250029296874-103.23749970703125z m64.76249970703125 369.86249970703125c0-38.73750029296875 1.7999999999999998-74.21249970703124-0.44999999999999996-109.46249999999998-2.8125-43.94999970703125-36.74999970703125-83.925-80.4375-87.33749941406249a1167.7500000000002 1167.7500000000002 0 0 0-171.37500029296876-0.5250005859375c-39.33749970703125 2.7749997070312498-69.1875 29.625000292968753-76.08749941406249 68.2500005859375-7.49999970703125 42.075-5.175 85.8375-7.199999999999999 129.0749994140625h335.54999970703125zM682.6583336263022 79.28749970703126c144.7875 0 289.575-0.07499970703125 434.36250000000007 0.11249999999999999 16.35000029296875 0 32.887500292968745 0.15000029296875 49.05 2.25 78.00000029296876 10.2375 116.58750029296874 52.80000029296875 116.81249941406249 131.5125 0.5625 195.75 0.63749970703125 391.53750029296873 0 587.2875002929688-0.29999970703125 85.275-56.8125 143.51249970703128-141.8999994140625 143.81250029296874-305.8875 0.86249970703125-611.8499997070311 0.9375002929687501-917.8125002929688-0.11249999999999999-84.75000029296874-0.26250029296875-138.4875-54.60000029296875-139.01249970703125-139.08750029296874-1.125-194.81249970703124-1.125-389.7 0-584.55C84.68333333333334 125.82500029296875 131.55833304036457 80.00000000000006 226.50833304036468 79.51249970703128 378.57083362630203 78.72499970703126 530.6333333333334 79.32500000000005 682.6958330403647 79.32500000000005z" fill="#fc6f00" p-id="23421"></path></svg>