<?xml version="1.0" standalone="no"?><!DOCTYPE svg PUBLIC "-//W3C//DTD SVG 1.1//EN" "http://www.w3.org/Graphics/SVG/1.1/DTD/svg11.dtd"><svg t="1606833270234" class="icon" viewBox="0 0 1024 1024" version="1.1" xmlns="http://www.w3.org/2000/svg" p-id="8818" xmlns:xlink="http://www.w3.org/1999/xlink" width="200" height="200"><defs><style type="text/css"></style></defs><path d="M512 112A403.2 403.2 0 1 0 912.64 512 403.2 403.2 0 0 0 512 112z m156.8 440.96a14.72 14.72 0 0 1-14.72 14.72H563.2v88.32a14.72 14.72 0 0 1-14.72 14.72H471.04a14.72 14.72 0 0 1-14.72-14.72V568.32H368a14.72 14.72 0 0 1-14.72-14.72v-76.8a14.72 14.72 0 0 1 14.72-14.72h88.32V373.12a14.72 14.72 0 0 1 14.72-14.72h76.8a14.72 14.72 0 0 1 14.72 14.72v88.32h88.32a14.72 14.72 0 0 1 14.72 14.72z" p-id="8819"></path></svg>