<?xml version="1.0" standalone="no"?><!DOCTYPE svg PUBLIC "-//W3C//DTD SVG 1.1//EN" "http://www.w3.org/Graphics/SVG/1.1/DTD/svg11.dtd"><svg t="1604634821544" class="icon" viewBox="0 0 1024 1024" version="1.1" xmlns="http://www.w3.org/2000/svg" p-id="16140" xmlns:xlink="http://www.w3.org/1999/xlink" width="200" height="200"><defs><style type="text/css"></style></defs><path d="M512 11.37777813C234.38222187 11.37777813 11.37777813 234.38222187 11.37777813 512c0 157.01333333 72.81777813 298.09777813 184.32 389.12C282.16888853 971.66222187 391.3955552 1012.62222187 512 1012.62222187s229.83111147-40.96 316.30222187-111.50222187c113.77777813-91.02222187 184.32-232.10666667 184.32-389.12 0-277.61777813-223.0044448-500.62222187-500.62222187-500.62222187z m0 955.73333334c-100.1244448 0-191.14666667-31.85777813-266.24-86.47111147C275.34222187 760.0355552 384.56888853 671.28888853 512 671.28888853s236.65777813 88.74666667 266.24 209.35111147C703.14666667 935.25333333 612.1244448 967.11111147 512 967.11111147z m-182.0444448-523.37777814c0-100.1244448 81.92-182.0444448 182.0444448-182.0444448s182.0444448 81.92 182.0444448 182.0444448-81.92 182.0444448-182.0444448 182.0444448-182.0444448-81.92-182.0444448-182.0444448z m484.69333333 407.3244448c-29.58222187-95.57333333-102.4-172.94222187-195.69777706-204.8 72.81777813-38.6844448 120.6044448-113.77777813 120.60444373-200.2488896 0-125.1555552-102.4-227.5555552-227.5555552-227.5555552s-227.5555552 102.4-227.5555552 227.5555552c0 86.47111147 47.78666667 161.5644448 120.60444373 200.2488896-93.29777813 34.13333333-166.1155552 109.22666667-195.69777706 204.8C116.05333333 766.86222187 56.88888853 646.25777813 56.88888853 512 56.88888853 261.68888853 261.68888853 56.88888853 512 56.88888853s455.11111147 204.8 455.11111147 455.11111147c0 134.25777813-59.1644448 254.86222187-152.46222294 339.05777813z" p-id="16141" fill="#d81e06"></path></svg>