<?xml version="1.0" standalone="no"?><!DOCTYPE svg PUBLIC "-//W3C//DTD SVG 1.1//EN" "http://www.w3.org/Graphics/SVG/1.1/DTD/svg11.dtd"><svg t="1604624352935" class="icon" viewBox="0 0 1117 1024" version="1.1" xmlns="http://www.w3.org/2000/svg" p-id="11362" xmlns:xlink="http://www.w3.org/1999/xlink" width="218.1640625" height="200"><defs><style type="text/css"></style></defs><path d="M525.870545 59.764364a211.316364 211.316364 0 0 1 211.316364 211.316363 211.874909 211.874909 0 0 1-211.316364 211.874909 211.502545 211.502545 0 0 1-211.316363-211.874909A211.037091 211.037091 0 0 1 525.963636 59.764364m0-42.635637A253.765818 253.765818 0 0 0 271.825455 271.080727 254.138182 254.138182 0 0 0 525.963636 524.939636a254.138182 254.138182 0 0 0 253.858909-253.858909A253.765818 253.765818 0 0 0 525.963636 17.128727z" p-id="11363" fill="#d81e06"></path><path d="M1021.486545 908.567273c-29.230545-150.993455-120.552727-280.110545-250.321454-353.745455-4.189091-1.861818-8.471273-4.282182-13.312-6.702545-10.426182-5.585455-20.759273-10.984727-31.650909-15.266909l-7.354182-3.072a16.849455 16.849455 0 0 0-7.912727-1.861819 18.990545 18.990545 0 0 0-18.897455 18.990546c0 7.912727 4.933818 13.963636 10.984727 17.035636l6.702546 2.978909c3.072 1.861818 6.702545 3.072 10.333091 4.933819 10.333091 4.840727 21.317818 10.333091 31.092363 16.384l0.558546 0.651636a474.670545 474.670545 0 0 1 231.424 326.935273 33.512727 33.512727 0 0 1-7.354182 27.368727 29.323636 29.323636 0 0 1-22.528 10.426182H94.766545a27.461818 27.461818 0 0 1-22.528-10.426182l-0.651636-0.558546a28.672 28.672 0 0 1-6.702545-26.158545c41.425455-213.736727 216.157091-373.294545 425.611636-388.468364h1.210182c7.912727-1.861818 13.963636-1.861818 22.528-1.861818h10.984727v-37.143273l-16.384-0.558545c-8.005818 0-14.615273-0.651636-22.528 1.861818C262.237091 508.462545 74.100364 680.773818 29.602909 908.567273a69.632 69.632 0 0 0 12.101818 57.809454l0.651637 0.651637a70.842182 70.842182 0 0 0 53.061818 24.948363h858.484363c19.456 0 39.563636-9.774545 52.317091-24.948363 15.266909-18.338909 20.759273-38.353455 15.266909-58.461091z" p-id="11364" fill="#d81e06"></path></svg>