<?xml version="1.0" standalone="no"?><!DOCTYPE svg PUBLIC "-//W3C//DTD SVG 1.1//EN" "http://www.w3.org/Graphics/SVG/1.1/DTD/svg11.dtd"><svg t="1606616521177" class="icon" viewBox="0 0 1170 1024" version="1.1" xmlns="http://www.w3.org/2000/svg" p-id="3712" xmlns:xlink="http://www.w3.org/1999/xlink" width="228.515625" height="200"><defs><style type="text/css"></style></defs><path d="M856.77225 379.946705l153.688309 67.004897a22.349806 22.349806 0 0 1 0 41.048847l-225.724138 98.392573 225.724138 98.437094a22.349806 22.349806 0 0 1 0 41.093369l-461.866313 201.415384a91.714344 91.714344 0 0 1-73.193389 0L13.534544 725.923485a22.349806 22.349806 0 0 1 0-41.093369l225.724138-98.392573-225.724138-98.392573a22.349806 22.349806 0 0 1 0-41.093368l153.599265-67.004897 112.505897 49.062721L191.442563 467.476025l320.554988 139.797592 320.554989-139.797592-88.286186-38.466599 112.505896-49.062721zM351.720057 635.455743l-160.277494 69.898797 320.59951 139.797592 320.554988-139.797592-160.277494-69.898797-123.6808 53.96009a91.714344 91.714344 0 0 1-73.193389 0l-123.725321-53.96009zM547.614772 7.123444l463.201959 201.994165a22.260763 22.260763 0 0 1 0 40.826239L547.570251 451.893491a89.043052 89.043052 0 0 1-71.145399 0L13.222893 249.98837a22.260763 22.260763 0 0 1 0-40.82624l463.201959-201.994164a89.043052 89.043052 0 0 1 71.145399 0zM511.997551 84.5909L191.442563 224.388492l320.554988 139.797592 320.554989-139.797592-320.554989-139.797592z" p-id="3713"></path></svg>